# xmcd CD database file
#
# Track frame offsets:
#	150
#	17129
#	32592
#	49219
#	63328
#	74178
#	87202
#	101581
#	113205
#	126060
#	139327
#	158796
#	176625
#
# Disc length: 2579 seconds
#
# Revision: 1
# Processed by: cddbd v1.5.1PL0 Copyright (c) Steve Scherf et al.
# Submitted via: CDex 1.51
#
DISCID=b80a110d
DTITLE=Circuladô de Fulô - Levitar
DYEAR=2004
DGENRE=Folklore
TTITLE0=Levitar
TTITLE1=Linda Menina
TTITLE2=Pedacinho de papel de pão
TTITLE3=Chuva de gelo
TTITLE4=Quem me dera
TTITLE5=Tetraraí
TTITLE6=Moinho de vento
TTITLE7=A Lua
TTITLE8=Toda Verdade
TTITLE9=Farol
TTITLE10=Esperando po você
TTITLE11=No Final
TTITLE12=Sempre estarei aqui
EXTD=YEAR: 2004
EXTT0=
EXTT1=
EXTT2=
EXTT3=
EXTT4=
EXTT5=
EXTT6=
EXTT7=
EXTT8=
EXTT9=
EXTT10=
EXTT11=
EXTT12=
PLAYORDER=
